<mxfile host="app.diagrams.net" modified="2023-06-02T13:35:13.833Z" agent="Mozilla/5.0 (Windows NT 10.0; Win64; x64) AppleWebKit/537.36 (KHTML, like Gecko) Chrome/114.0.0.0 Safari/537.36" etag="ekLIsDTcTWX67Fyzd4zr" version="21.3.7" type="device">
  <diagram name="Simple" id="2YBvvXClWsGukQMizWep">
    <mxGraphModel dx="837" dy="488" grid="1" gridSize="10" guides="1" tooltips="1" connect="1" arrows="1" fold="1" page="1" pageScale="1" pageWidth="850" pageHeight="1100" background="#EEEEFF" math="0" shadow="0">
      <root>
        <mxCell id="0" />
        <mxCell id="1" parent="0" />
        <mxCell id="y8LN_RdOT-2jXtNHVtIl-1" value=":User" style="shape=umlLifeline;perimeter=lifelinePerimeter;whiteSpace=wrap;html=1;container=1;dropTarget=0;collapsible=0;recursiveResize=0;outlineConnect=0;portConstraint=eastwest;newEdgeStyle={&quot;edgeStyle&quot;:&quot;elbowEdgeStyle&quot;,&quot;elbow&quot;:&quot;vertical&quot;,&quot;curved&quot;:0,&quot;rounded&quot;:0};" vertex="1" parent="1">
          <mxGeometry x="40" y="40" width="80" height="440" as="geometry" />
        </mxCell>
        <mxCell id="y8LN_RdOT-2jXtNHVtIl-10" value="" style="html=1;points=[];perimeter=orthogonalPerimeter;outlineConnect=0;targetShapes=umlLifeline;portConstraint=eastwest;newEdgeStyle={&quot;edgeStyle&quot;:&quot;elbowEdgeStyle&quot;,&quot;elbow&quot;:&quot;vertical&quot;,&quot;curved&quot;:0,&quot;rounded&quot;:0};fillColor=#f5f5f5;strokeColor=#666666;fontColor=#333333;" vertex="1" parent="y8LN_RdOT-2jXtNHVtIl-1">
          <mxGeometry x="35" y="60" width="10" height="300" as="geometry" />
        </mxCell>
        <mxCell id="y8LN_RdOT-2jXtNHVtIl-2" value=":NginX" style="shape=umlLifeline;perimeter=lifelinePerimeter;whiteSpace=wrap;html=1;container=1;dropTarget=0;collapsible=0;recursiveResize=0;outlineConnect=0;portConstraint=eastwest;newEdgeStyle={&quot;edgeStyle&quot;:&quot;elbowEdgeStyle&quot;,&quot;elbow&quot;:&quot;vertical&quot;,&quot;curved&quot;:0,&quot;rounded&quot;:0};" vertex="1" parent="1">
          <mxGeometry x="240" y="40" width="80" height="440" as="geometry" />
        </mxCell>
        <mxCell id="y8LN_RdOT-2jXtNHVtIl-11" value="" style="html=1;points=[];perimeter=orthogonalPerimeter;outlineConnect=0;targetShapes=umlLifeline;portConstraint=eastwest;newEdgeStyle={&quot;edgeStyle&quot;:&quot;elbowEdgeStyle&quot;,&quot;elbow&quot;:&quot;vertical&quot;,&quot;curved&quot;:0,&quot;rounded&quot;:0};fillColor=#f5f5f5;fontColor=#333333;strokeColor=#666666;" vertex="1" parent="y8LN_RdOT-2jXtNHVtIl-2">
          <mxGeometry x="35" y="60" width="10" height="300" as="geometry" />
        </mxCell>
        <mxCell id="y8LN_RdOT-2jXtNHVtIl-15" value="" style="html=1;points=[];perimeter=orthogonalPerimeter;outlineConnect=0;targetShapes=umlLifeline;portConstraint=eastwest;newEdgeStyle={&quot;edgeStyle&quot;:&quot;elbowEdgeStyle&quot;,&quot;elbow&quot;:&quot;vertical&quot;,&quot;curved&quot;:0,&quot;rounded&quot;:0};" vertex="1" parent="y8LN_RdOT-2jXtNHVtIl-2">
          <mxGeometry x="45" y="80" width="10" height="70" as="geometry" />
        </mxCell>
        <mxCell id="y8LN_RdOT-2jXtNHVtIl-21" value="" style="html=1;points=[];perimeter=orthogonalPerimeter;outlineConnect=0;targetShapes=umlLifeline;portConstraint=eastwest;newEdgeStyle={&quot;edgeStyle&quot;:&quot;elbowEdgeStyle&quot;,&quot;elbow&quot;:&quot;vertical&quot;,&quot;curved&quot;:0,&quot;rounded&quot;:0};" vertex="1" parent="y8LN_RdOT-2jXtNHVtIl-2">
          <mxGeometry x="45" y="230" width="10" height="80" as="geometry" />
        </mxCell>
        <mxCell id="y8LN_RdOT-2jXtNHVtIl-3" value=":ServerA" style="shape=umlLifeline;perimeter=lifelinePerimeter;whiteSpace=wrap;html=1;container=1;dropTarget=0;collapsible=0;recursiveResize=0;outlineConnect=0;portConstraint=eastwest;newEdgeStyle={&quot;edgeStyle&quot;:&quot;elbowEdgeStyle&quot;,&quot;elbow&quot;:&quot;vertical&quot;,&quot;curved&quot;:0,&quot;rounded&quot;:0};" vertex="1" parent="1">
          <mxGeometry x="440" y="40" width="80" height="440" as="geometry" />
        </mxCell>
        <mxCell id="y8LN_RdOT-2jXtNHVtIl-16" value="" style="html=1;points=[];perimeter=orthogonalPerimeter;outlineConnect=0;targetShapes=umlLifeline;portConstraint=eastwest;newEdgeStyle={&quot;edgeStyle&quot;:&quot;elbowEdgeStyle&quot;,&quot;elbow&quot;:&quot;vertical&quot;,&quot;curved&quot;:0,&quot;rounded&quot;:0};fillColor=#f5f5f5;fontColor=#333333;strokeColor=#666666;" vertex="1" parent="y8LN_RdOT-2jXtNHVtIl-3">
          <mxGeometry x="35" y="80" width="10" height="70" as="geometry" />
        </mxCell>
        <mxCell id="y8LN_RdOT-2jXtNHVtIl-4" value=":ServerB" style="shape=umlLifeline;perimeter=lifelinePerimeter;whiteSpace=wrap;html=1;container=1;dropTarget=0;collapsible=0;recursiveResize=0;outlineConnect=0;portConstraint=eastwest;newEdgeStyle={&quot;edgeStyle&quot;:&quot;elbowEdgeStyle&quot;,&quot;elbow&quot;:&quot;vertical&quot;,&quot;curved&quot;:0,&quot;rounded&quot;:0};" vertex="1" parent="1">
          <mxGeometry x="560" y="40" width="80" height="440" as="geometry" />
        </mxCell>
        <mxCell id="y8LN_RdOT-2jXtNHVtIl-22" value="" style="html=1;points=[];perimeter=orthogonalPerimeter;outlineConnect=0;targetShapes=umlLifeline;portConstraint=eastwest;newEdgeStyle={&quot;edgeStyle&quot;:&quot;elbowEdgeStyle&quot;,&quot;elbow&quot;:&quot;vertical&quot;,&quot;curved&quot;:0,&quot;rounded&quot;:0};" vertex="1" parent="y8LN_RdOT-2jXtNHVtIl-4">
          <mxGeometry x="35" y="230" width="10" height="80" as="geometry" />
        </mxCell>
        <mxCell id="y8LN_RdOT-2jXtNHVtIl-12" value="POST http://localhost/eval" style="html=1;verticalAlign=bottom;endArrow=block;edgeStyle=elbowEdgeStyle;elbow=vertical;curved=0;rounded=0;" edge="1" target="y8LN_RdOT-2jXtNHVtIl-11" parent="1" source="y8LN_RdOT-2jXtNHVtIl-10">
          <mxGeometry relative="1" as="geometry">
            <mxPoint x="125" y="100" as="sourcePoint" />
            <Array as="points">
              <mxPoint x="180" y="100" />
            </Array>
          </mxGeometry>
        </mxCell>
        <mxCell id="y8LN_RdOT-2jXtNHVtIl-13" value="HTTP /1.1 201 Created" style="html=1;verticalAlign=bottom;endArrow=open;dashed=1;endSize=8;edgeStyle=elbowEdgeStyle;elbow=vertical;curved=0;rounded=0;" edge="1" source="y8LN_RdOT-2jXtNHVtIl-11" parent="1" target="y8LN_RdOT-2jXtNHVtIl-10">
          <mxGeometry relative="1" as="geometry">
            <mxPoint x="185" y="175" as="targetPoint" />
            <Array as="points">
              <mxPoint x="130" y="400" />
              <mxPoint x="250" y="380" />
              <mxPoint x="210" y="400" />
              <mxPoint x="220" y="480" />
              <mxPoint x="130" y="300" />
              <mxPoint x="180" y="320" />
            </Array>
            <mxPoint as="offset" />
          </mxGeometry>
        </mxCell>
        <mxCell id="y8LN_RdOT-2jXtNHVtIl-14" value="&lt;p style=&quot;font-size: 10px;&quot;&gt;&lt;font data-font-src=&quot;https://fonts.googleapis.com/css?family=Roboto+Mono&quot; style=&quot;font-size: 10px;&quot;&gt;{&quot;eval&quot;: &quot;3 * 8&quot;}&lt;/font&gt;&lt;/p&gt;" style="rounded=0;whiteSpace=wrap;html=1;align=center;fontFamily=Roboto Mono;fontSource=https%3A%2F%2Ffonts.googleapis.com%2Fcss%3Ffamily%3DRoboto%2BMono;verticalAlign=middle;horizontal=1;labelPosition=center;verticalLabelPosition=middle;spacing=2;spacingTop=0;fontSize=10;" vertex="1" parent="1">
          <mxGeometry x="100" y="110" width="110" height="30" as="geometry" />
        </mxCell>
        <mxCell id="y8LN_RdOT-2jXtNHVtIl-17" value="POST http://localhost:134/compile" style="html=1;verticalAlign=bottom;endArrow=block;edgeStyle=elbowEdgeStyle;elbow=vertical;curved=0;rounded=0;" edge="1" target="y8LN_RdOT-2jXtNHVtIl-16" parent="1" source="y8LN_RdOT-2jXtNHVtIl-15">
          <mxGeometry x="0.0034" relative="1" as="geometry">
            <mxPoint x="405" y="120" as="sourcePoint" />
            <Array as="points">
              <mxPoint x="320" y="120" />
            </Array>
            <mxPoint as="offset" />
          </mxGeometry>
        </mxCell>
        <mxCell id="y8LN_RdOT-2jXtNHVtIl-18" value="HTTP/1.1 202 Accepted" style="html=1;verticalAlign=bottom;endArrow=open;dashed=1;endSize=8;edgeStyle=elbowEdgeStyle;elbow=vertical;curved=0;rounded=0;" edge="1" source="y8LN_RdOT-2jXtNHVtIl-16" parent="1" target="y8LN_RdOT-2jXtNHVtIl-15">
          <mxGeometry relative="1" as="geometry">
            <mxPoint x="405" y="195" as="targetPoint" />
            <Array as="points">
              <mxPoint x="420" y="190" />
              <mxPoint x="400" y="180" />
            </Array>
          </mxGeometry>
        </mxCell>
        <mxCell id="y8LN_RdOT-2jXtNHVtIl-19" value="&lt;p style=&quot;font-size: 10px;&quot;&gt;&lt;font data-font-src=&quot;https://fonts.googleapis.com/css?family=Roboto+Mono&quot; style=&quot;font-size: 10px;&quot;&gt;{&quot;eval&quot;: &quot;3 * 8&quot;}&lt;/font&gt;&lt;/p&gt;" style="rounded=0;whiteSpace=wrap;html=1;align=center;fontFamily=Roboto Mono;fontSource=https%3A%2F%2Ffonts.googleapis.com%2Fcss%3Ffamily%3DRoboto%2BMono;verticalAlign=middle;horizontal=1;labelPosition=center;verticalLabelPosition=middle;spacing=2;spacingTop=0;fontSize=10;" vertex="1" parent="1">
          <mxGeometry x="310" y="130" width="110" height="30" as="geometry" />
        </mxCell>
        <mxCell id="y8LN_RdOT-2jXtNHVtIl-20" value="&lt;p style=&quot;font-size: 10px; line-height: 30%;&quot;&gt;&lt;font data-font-src=&quot;https://fonts.googleapis.com/css?family=Roboto+Mono&quot; style=&quot;font-size: 10px;&quot;&gt;{&amp;nbsp;&lt;/font&gt;&lt;span style=&quot;background-color: initial;&quot;&gt;&quot;first&quot;: 3,&lt;/span&gt;&lt;/p&gt;&lt;p style=&quot;font-size: 10px; line-height: 30%;&quot;&gt;&lt;span style=&quot;background-color: initial;&quot;&gt;&quot;second&quot;: 8,&lt;/span&gt;&lt;/p&gt;&lt;p style=&quot;font-size: 10px; line-height: 30%;&quot;&gt;&lt;font data-font-src=&quot;https://fonts.googleapis.com/css?family=Roboto+Mono&quot; style=&quot;font-size: 10px;&quot;&gt;&quot;operator&quot;: &quot;*&quot; }&lt;/font&gt;&lt;/p&gt;" style="rounded=0;whiteSpace=wrap;html=1;align=left;fontFamily=Roboto Mono;fontSource=https%3A%2F%2Ffonts.googleapis.com%2Fcss%3Ffamily%3DRoboto%2BMono;verticalAlign=middle;horizontal=1;labelPosition=center;verticalLabelPosition=middle;spacing=2;spacingTop=0;fontSize=10;" vertex="1" parent="1">
          <mxGeometry x="350" y="200" width="110" height="50" as="geometry" />
        </mxCell>
        <mxCell id="y8LN_RdOT-2jXtNHVtIl-23" value="POST http://localhost:85/exec" style="html=1;verticalAlign=bottom;endArrow=block;edgeStyle=elbowEdgeStyle;elbow=vertical;curved=0;rounded=0;" edge="1" target="y8LN_RdOT-2jXtNHVtIl-22" parent="1" source="y8LN_RdOT-2jXtNHVtIl-21">
          <mxGeometry relative="1" as="geometry">
            <mxPoint x="525" y="270" as="sourcePoint" />
            <Array as="points">
              <mxPoint x="460" y="270" />
            </Array>
          </mxGeometry>
        </mxCell>
        <mxCell id="y8LN_RdOT-2jXtNHVtIl-24" value="HTTP/1.1 201 Created" style="html=1;verticalAlign=bottom;endArrow=open;dashed=1;endSize=8;edgeStyle=elbowEdgeStyle;elbow=vertical;curved=0;rounded=0;" edge="1" source="y8LN_RdOT-2jXtNHVtIl-22" parent="1" target="y8LN_RdOT-2jXtNHVtIl-21">
          <mxGeometry relative="1" as="geometry">
            <mxPoint x="525" y="345" as="targetPoint" />
            <Array as="points">
              <mxPoint x="380" y="350" />
            </Array>
          </mxGeometry>
        </mxCell>
        <mxCell id="y8LN_RdOT-2jXtNHVtIl-25" value="&lt;p style=&quot;font-size: 10px; line-height: 30%;&quot;&gt;&lt;font data-font-src=&quot;https://fonts.googleapis.com/css?family=Roboto+Mono&quot; style=&quot;font-size: 10px;&quot;&gt;{&amp;nbsp;&lt;/font&gt;&lt;span style=&quot;background-color: initial;&quot;&gt;&quot;first&quot;: 3,&lt;/span&gt;&lt;/p&gt;&lt;p style=&quot;font-size: 10px; line-height: 30%;&quot;&gt;&lt;span style=&quot;background-color: initial;&quot;&gt;&quot;second&quot;: 8,&lt;/span&gt;&lt;/p&gt;&lt;p style=&quot;font-size: 10px; line-height: 30%;&quot;&gt;&lt;font data-font-src=&quot;https://fonts.googleapis.com/css?family=Roboto+Mono&quot; style=&quot;font-size: 10px;&quot;&gt;&quot;operator&quot;: &quot;*&quot; }&lt;/font&gt;&lt;/p&gt;" style="rounded=0;whiteSpace=wrap;html=1;align=left;fontFamily=Roboto Mono;fontSource=https%3A%2F%2Ffonts.googleapis.com%2Fcss%3Ffamily%3DRoboto%2BMono;verticalAlign=middle;horizontal=1;labelPosition=center;verticalLabelPosition=middle;spacing=2;spacingTop=0;fontSize=10;" vertex="1" parent="1">
          <mxGeometry x="310" y="280" width="110" height="50" as="geometry" />
        </mxCell>
        <mxCell id="y8LN_RdOT-2jXtNHVtIl-27" value="&lt;p style=&quot;font-size: 10px;&quot;&gt;{&quot;ans&quot;: 24}&lt;/p&gt;" style="rounded=0;whiteSpace=wrap;html=1;align=center;fontFamily=Roboto Mono;fontSource=https%3A%2F%2Ffonts.googleapis.com%2Fcss%3Ffamily%3DRoboto%2BMono;verticalAlign=middle;horizontal=1;labelPosition=center;verticalLabelPosition=middle;spacing=2;spacingTop=0;fontSize=10;" vertex="1" parent="1">
          <mxGeometry x="510" y="360" width="70" height="30" as="geometry" />
        </mxCell>
        <mxCell id="y8LN_RdOT-2jXtNHVtIl-28" value="&lt;p style=&quot;font-size: 10px;&quot;&gt;{&quot;ans&quot;: 24}&lt;/p&gt;" style="rounded=0;whiteSpace=wrap;html=1;align=center;fontFamily=Roboto Mono;fontSource=https%3A%2F%2Ffonts.googleapis.com%2Fcss%3Ffamily%3DRoboto%2BMono;verticalAlign=middle;horizontal=1;labelPosition=center;verticalLabelPosition=middle;spacing=2;spacingTop=0;fontSize=10;" vertex="1" parent="1">
          <mxGeometry x="190" y="410" width="70" height="30" as="geometry" />
        </mxCell>
      </root>
    </mxGraphModel>
  </diagram>
</mxfile>
